<svg xmlns="http://www.w3.org/2000/svg" xmlns:xlink="http://www.w3.org/1999/xlink" width="500" zoomAndPan="magnify" viewBox="0 0 375 374.999991" height="500" preserveAspectRatio="xMidYMid meet" version="1.0"><defs><clipPath id="fbdaebbed5"><path d="M 60.84375 60.84375 L 314.15625 60.84375 L 314.15625 314.15625 L 60.84375 314.15625 Z M 60.84375 60.84375 " clip-rule="nonzero"/></clipPath><clipPath id="2fd73dc361"><path d="M 187.5 60.84375 C 117.550781 60.84375 60.84375 117.550781 60.84375 187.5 C 60.84375 257.449219 117.550781 314.15625 187.5 314.15625 C 257.449219 314.15625 314.15625 257.449219 314.15625 187.5 C 314.15625 117.550781 257.449219 60.84375 187.5 60.84375 Z M 187.5 60.84375 " clip-rule="nonzero"/></clipPath><clipPath id="5247f21eec"><path d="M 100 131 L 274 131 L 274 278.949219 L 100 278.949219 Z M 100 131 " clip-rule="nonzero"/></clipPath><clipPath id="350380936f"><path d="M 87.988281 171 L 106 171 L 106 206 L 87.988281 206 Z M 87.988281 171 " clip-rule="nonzero"/></clipPath><clipPath id="85e67ce51c"><path d="M 269 171 L 286.738281 171 L 286.738281 206 L 269 206 Z M 269 171 " clip-rule="nonzero"/></clipPath><clipPath id="dc0418e6fc"><path d="M 37.5 40.453125 L 334.5 40.453125 L 334.5 337.453125 L 37.5 337.453125 Z M 37.5 40.453125 " clip-rule="nonzero"/></clipPath><clipPath id="72cdb5fa4f"><path d="M 186.015625 40.453125 C 103.992188 40.453125 37.5 106.945312 37.5 188.972656 C 37.5 270.996094 103.992188 337.488281 186.015625 337.488281 C 268.042969 337.488281 334.535156 270.996094 334.535156 188.972656 C 334.535156 106.945312 268.042969 40.453125 186.015625 40.453125 Z M 186.015625 40.453125 " clip-rule="nonzero"/></clipPath></defs><g clip-path="url(#fbdaebbed5)"><g clip-path="url(#2fd73dc361)"><path fill="#ffffff" d="M 60.84375 60.84375 L 314.15625 60.84375 L 314.15625 314.15625 L 60.84375 314.15625 Z M 60.84375 60.84375 " fill-opacity="1" fill-rule="nonzero"/></g></g><g clip-path="url(#5247f21eec)"><path fill="#5271ff" d="M 158.535156 131.132812 L 216.234375 131.132812 C 232.09375 131.132812 246.507812 137.617188 256.957031 148.066406 C 267.398438 158.507812 273.886719 172.925781 273.886719 188.789062 C 273.886719 204.648438 267.398438 219.070312 256.957031 229.511719 C 246.507812 239.960938 232.09375 246.441406 216.234375 246.441406 L 209.933594 246.441406 L 177.921875 276.273438 C 175.03125 278.960938 170.503906 278.796875 167.8125 275.910156 C 166.527344 274.527344 165.894531 272.777344 165.894531 271.03125 L 165.878906 271.03125 L 165.878906 246.441406 L 158.535156 246.441406 C 142.671875 246.441406 128.257812 239.960938 117.8125 229.511719 C 107.363281 219.070312 100.882812 204.648438 100.882812 188.789062 C 100.882812 172.925781 107.363281 158.507812 117.8125 148.066406 C 128.257812 137.617188 142.671875 131.132812 158.535156 131.132812 Z M 216.234375 145.476562 L 158.535156 145.476562 C 146.628906 145.476562 135.804688 150.351562 127.949219 158.207031 C 120.097656 166.054688 115.222656 176.882812 115.222656 188.789062 C 115.222656 200.691406 120.097656 211.519531 127.949219 219.371094 C 135.804688 227.226562 146.628906 232.101562 158.535156 232.101562 L 173.046875 232.101562 C 177.007812 232.101562 180.21875 235.3125 180.21875 239.273438 L 180.21875 254.570312 L 201.90625 234.355469 C 203.21875 232.96875 205.070312 232.101562 207.132812 232.101562 L 216.234375 232.101562 C 228.132812 232.101562 238.964844 227.226562 246.816406 219.371094 C 254.664062 211.519531 259.542969 200.691406 259.542969 188.789062 C 259.542969 176.882812 254.664062 166.054688 246.816406 158.207031 C 238.964844 150.351562 228.132812 145.476562 216.234375 145.476562 Z M 216.234375 145.476562 " fill-opacity="1" fill-rule="nonzero"/></g><path fill="#5271ff" d="M 182.507812 109.457031 L 192.257812 109.457031 L 192.257812 139.039062 L 182.507812 139.039062 Z M 182.507812 109.457031 " fill-opacity="1" fill-rule="evenodd"/><path fill="#5271ff" d="M 187.382812 96.011719 C 194.4375 96.011719 200.15625 101.734375 200.15625 108.785156 C 200.15625 115.839844 194.4375 121.5625 187.382812 121.5625 C 180.332031 121.5625 174.609375 115.839844 174.609375 108.785156 C 174.609375 101.734375 180.332031 96.011719 187.382812 96.011719 Z M 187.382812 96.011719 " fill-opacity="1" fill-rule="evenodd"/><g clip-path="url(#350380936f)"><path fill="#5271ff" d="M 105.035156 205.835938 C 95.617188 205.835938 87.988281 198.199219 87.988281 188.789062 C 87.988281 179.375 95.617188 171.742188 105.035156 171.742188 Z M 105.035156 205.835938 " fill-opacity="1" fill-rule="evenodd"/></g><g clip-path="url(#85e67ce51c)"><path fill="#5271ff" d="M 269.972656 205.835938 C 279.382812 205.835938 287.011719 198.199219 287.011719 188.789062 C 287.011719 179.375 279.382812 171.742188 269.972656 171.742188 Z M 269.972656 205.835938 " fill-opacity="1" fill-rule="evenodd"/></g><path fill="#5271ff" d="M 164.027344 168.386719 C 168.191406 168.386719 171.605469 171.796875 171.605469 175.964844 L 171.605469 198.910156 C 171.605469 203.078125 168.191406 206.484375 164.027344 206.484375 C 159.859375 206.484375 156.449219 203.078125 156.449219 198.910156 L 156.449219 175.964844 C 156.449219 171.796875 159.859375 168.386719 164.027344 168.386719 Z M 164.027344 168.386719 " fill-opacity="1" fill-rule="evenodd"/><path fill="#5271ff" d="M 210.738281 168.386719 L 210.742188 168.386719 C 214.90625 168.386719 218.320312 171.796875 218.320312 175.964844 L 218.320312 198.910156 C 218.320312 203.078125 214.90625 206.484375 210.742188 206.484375 L 210.738281 206.484375 C 206.570312 206.484375 203.164062 203.078125 203.164062 198.910156 L 203.164062 175.964844 C 203.164062 171.796875 206.570312 168.386719 210.738281 168.386719 Z M 210.738281 168.386719 " fill-opacity="1" fill-rule="evenodd"/><g clip-path="url(#dc0418e6fc)"><g clip-path="url(#72cdb5fa4f)"><path stroke-linecap="butt" transform="matrix(0.75, 0, 0, 0.75, 37.500002, 40.453272)" fill="none" stroke-linejoin="miter" d="M 198.020844 -0.000195658 C 88.656253 -0.000195658 -0.00000271667 88.65606 -0.00000271667 198.025859 C -0.00000271667 307.39045 88.656253 396.046705 198.020844 396.046705 C 307.390642 396.046705 396.046898 307.39045 396.046898 198.025859 C 396.046898 88.65606 307.390642 -0.000195658 198.020844 -0.000195658 Z M 198.020844 -0.000195658 " stroke="#ffffff" stroke-width="22" stroke-opacity="1" stroke-miterlimit="4"/></g></g></svg>