<svg width="397" height="397" viewBox="0 0 397 397" fill="none" xmlns="http://www.w3.org/2000/svg">
<g clip-path="url(#clip0_751_2456)">
<mask id="mask0_751_2456" style="mask-type:luminance" maskUnits="userSpaceOnUse" x="0" y="0" width="397" height="397">
<path d="M0 0.9375H396.063V397H0V0.9375Z" fill="white"/>
</mask>
<g mask="url(#mask0_751_2456)">
<mask id="mask1_751_2456" style="mask-type:luminance" maskUnits="userSpaceOnUse" x="0" y="0" width="397" height="397">
<path d="M198.031 0.9375C88.6615 0.9375 0 89.599 0 198.969C0 308.339 88.6615 397 198.031 397C307.401 397 396.063 308.339 396.063 198.969C396.063 89.599 307.401 0.9375 198.031 0.9375Z" fill="white"/>
</mask>
<g mask="url(#mask1_751_2456)">
<path d="M0 0.9375H396.063V397H0V0.9375Z" fill="#050E38"/>
</g>
</g>
<mask id="mask2_751_2456" style="mask-type:luminance" maskUnits="userSpaceOnUse" x="29" y="30" width="338" height="338">
<path d="M29 30H366.75V367.75H29V30Z" fill="white"/>
</mask>
<g mask="url(#mask2_751_2456)">
<mask id="mask3_751_2456" style="mask-type:luminance" maskUnits="userSpaceOnUse" x="29" y="30" width="338" height="338">
<path d="M197.875 30C104.609 30 29 105.609 29 198.875C29 292.141 104.609 367.75 197.875 367.75C291.141 367.75 366.75 292.141 366.75 198.875C366.75 105.609 291.141 30 197.875 30Z" fill="white"/>
</mask>
<g mask="url(#mask3_751_2456)">
<path d="M29 30H366.75V367.75H29V30Z" fill="white"/>
</g>
</g>
<mask id="mask4_751_2456" style="mask-type:luminance" maskUnits="userSpaceOnUse" x="81" y="121" width="233" height="198">
<path d="M81.2083 121.542H313.208V318.807H81.2083V121.542Z" fill="white"/>
</mask>
<g mask="url(#mask4_751_2456)">
<path d="M159.255 121.719H236.187C257.333 121.719 276.552 130.365 290.484 144.297C304.406 158.219 313.057 177.443 313.057 198.594C313.057 219.74 304.406 238.969 290.484 252.891C276.552 266.823 257.333 275.464 236.187 275.464H227.786L185.104 315.24C181.25 318.823 175.214 318.604 171.625 314.755C169.911 312.911 169.068 310.578 169.068 308.25H169.047V275.464H159.255C138.104 275.464 118.885 266.823 104.958 252.891C91.026 238.969 82.3854 219.74 82.3854 198.594C82.3854 177.443 91.026 158.219 104.958 144.297C118.885 130.365 138.104 121.719 159.255 121.719ZM236.187 140.844H159.255C143.38 140.844 128.948 147.344 118.474 157.818C108.005 168.281 101.505 182.719 101.505 198.594C101.505 214.464 108.005 228.901 118.474 239.37C128.948 249.844 143.38 256.344 159.255 256.344H178.604C183.885 256.344 188.167 260.625 188.167 265.906V286.302L217.083 259.349C218.833 257.5 221.302 256.344 224.052 256.344H236.187C252.052 256.344 266.495 249.844 276.964 239.37C287.427 228.901 293.932 214.464 293.932 198.594C293.932 182.719 287.427 168.281 276.964 157.818C266.495 147.344 252.052 140.844 236.187 140.844Z" fill="#5271FF"/>
</g>
<path fill-rule="evenodd" clip-rule="evenodd" d="M191.219 92.8177H204.219V132.26H191.219V92.8177Z" fill="#5271FF"/>
<path fill-rule="evenodd" clip-rule="evenodd" d="M197.719 74.8906C207.125 74.8906 214.75 82.5208 214.75 91.9219C214.75 101.328 207.125 108.958 197.719 108.958C188.318 108.958 180.688 101.328 180.688 91.9219C180.688 82.5208 188.318 74.8906 197.719 74.8906Z" fill="#5271FF"/>
<mask id="mask5_751_2456" style="mask-type:luminance" maskUnits="userSpaceOnUse" x="65" y="174" width="25" height="48">
<path d="M65.1927 174.875H89.2083V221.542H65.1927V174.875Z" fill="white"/>
</mask>
<g mask="url(#mask5_751_2456)">
<path fill-rule="evenodd" clip-rule="evenodd" d="M87.9219 221.323C75.3646 221.323 65.1927 211.141 65.1927 198.594C65.1927 186.042 75.3646 175.865 87.9219 175.865V221.323Z" fill="#5271FF"/>
</g>
<mask id="mask6_751_2456" style="mask-type:luminance" maskUnits="userSpaceOnUse" x="306" y="174" width="25" height="48">
<path d="M306.542 174.875H330.193V221.542H306.542V174.875Z" fill="white"/>
</mask>
<g mask="url(#mask6_751_2456)">
<path fill-rule="evenodd" clip-rule="evenodd" d="M307.839 221.323C320.385 221.323 330.557 211.141 330.557 198.594C330.557 186.042 320.385 175.865 307.839 175.865V221.323Z" fill="#5271FF"/>
</g>
<path fill-rule="evenodd" clip-rule="evenodd" d="M166.578 171.391C172.13 171.391 176.682 175.937 176.682 181.495V212.089C176.682 217.646 172.13 222.188 166.578 222.188C161.021 222.188 156.474 217.646 156.474 212.089V181.495C156.474 175.937 161.021 171.391 166.578 171.391Z" fill="#5271FF"/>
<path fill-rule="evenodd" clip-rule="evenodd" d="M228.859 171.391H228.865C234.417 171.391 238.969 175.937 238.969 181.495V212.089C238.969 217.646 234.417 222.188 228.865 222.188H228.859C223.302 222.188 218.76 217.646 218.76 212.089V181.495C218.76 175.937 223.302 171.391 228.859 171.391Z" fill="#5271FF"/>
</g>
<defs>
<clipPath id="clip0_751_2456">
<rect width="397" height="397" fill="white"/>
</clipPath>
</defs>
</svg>
