<svg width="397" height="397" viewBox="0 0 397 397" fill="none" xmlns="http://www.w3.org/2000/svg">
<g clip-path="url(#clip0_16_1588)">
<mask id="mask0_16_1588" style="mask-type:luminance" maskUnits="userSpaceOnUse" x="23" y="83" width="349" height="296">
<path d="M23.0908 83.0127H371.091V378.911H23.0908V83.0127Z" fill="white"/>
</mask>
<g mask="url(#mask0_16_1588)">
<path d="M140.161 83.2783H255.56C287.278 83.2783 316.106 96.2471 337.005 117.146C357.888 138.028 370.864 166.864 370.864 198.591C370.864 230.31 357.888 259.153 337.005 280.036C316.106 300.935 287.278 313.896 255.56 313.896H242.958L178.935 373.56C173.153 378.935 164.099 378.606 158.716 372.833C156.146 370.067 154.88 366.567 154.88 363.075H154.849V313.896H140.161C108.435 313.896 79.6064 300.935 58.7158 280.036C37.8174 259.153 24.8564 230.31 24.8564 198.591C24.8564 166.864 37.8174 138.028 58.7158 117.146C79.6064 96.2471 108.435 83.2783 140.161 83.2783ZM255.56 111.966H140.161C116.349 111.966 94.7002 121.716 78.9893 137.427C63.2861 153.122 53.5361 174.778 53.5361 198.591C53.5361 222.396 63.2861 244.052 78.9893 259.755C94.7002 275.466 116.349 285.216 140.161 285.216H169.185C177.106 285.216 183.528 291.638 183.528 299.56V330.153L226.903 289.724C229.528 286.95 233.231 285.216 237.356 285.216H255.56C279.356 285.216 301.021 275.466 316.724 259.755C332.419 244.052 342.177 222.396 342.177 198.591C342.177 174.778 332.419 153.122 316.724 137.427C301.021 121.716 279.356 111.966 255.56 111.966Z" fill="#5271FF"/>
</g>
<path fill-rule="evenodd" clip-rule="evenodd" d="M188.107 39.927H207.607V99.0911H188.107V39.927Z" fill="#5271FF"/>
<path fill-rule="evenodd" clip-rule="evenodd" d="M197.857 13.0366C211.966 13.0366 223.404 24.4819 223.404 38.5835C223.404 52.6929 211.966 64.1382 197.857 64.1382C183.755 64.1382 172.31 52.6929 172.31 38.5835C172.31 24.4819 183.755 13.0366 197.857 13.0366Z" fill="#5271FF"/>
<mask id="mask1_16_1588" style="mask-type:luminance" maskUnits="userSpaceOnUse" x="-1" y="163" width="37" height="71">
<path d="M-0.932617 163.013H35.0908V233.013H-0.932617V163.013Z" fill="white"/>
</mask>
<g mask="url(#mask1_16_1588)">
<path fill-rule="evenodd" clip-rule="evenodd" d="M33.1611 232.685C14.3252 232.685 -0.932617 217.411 -0.932617 198.591C-0.932617 179.763 14.3252 164.497 33.1611 164.497V232.685Z" fill="#5271FF"/>
</g>
<mask id="mask2_16_1588" style="mask-type:luminance" maskUnits="userSpaceOnUse" x="361" y="163" width="36" height="71">
<path d="M361.091 163.013H396.568V233.013H361.091V163.013Z" fill="white"/>
</mask>
<g mask="url(#mask2_16_1588)">
<path fill-rule="evenodd" clip-rule="evenodd" d="M363.037 232.685C381.857 232.685 397.115 217.411 397.115 198.591C397.115 179.763 381.857 164.497 363.037 164.497V232.685Z" fill="#5271FF"/>
</g>
<path fill-rule="evenodd" clip-rule="evenodd" d="M151.146 157.787C159.474 157.787 166.302 164.607 166.302 172.943V218.833C166.302 227.169 159.474 233.982 151.146 233.982C142.81 233.982 135.99 227.169 135.99 218.833V172.943C135.99 164.607 142.81 157.787 151.146 157.787Z" fill="#5271FF"/>
<path fill-rule="evenodd" clip-rule="evenodd" d="M244.568 157.787H244.576C252.904 157.787 259.732 164.607 259.732 172.943V218.833C259.732 227.169 252.904 233.982 244.576 233.982H244.568C236.232 233.982 229.419 227.169 229.419 218.833V172.943C229.419 164.607 236.232 157.787 244.568 157.787Z" fill="#5271FF"/>
</g>
<defs>
<clipPath id="clip0_16_1588">
<rect width="397" height="397" fill="white"/>
</clipPath>
</defs>
</svg>
